{
    "asset" : {
        "generator" : "Khronos glTF Blender I/O v1.1.45",
        "version" : "2.0"
    },
    "scene" : 0,
    "scenes" : [
        {
            "name" : "Scene",
            "nodes" : [
                0,
                1,
                2,
                3
            ]
        }
    ],
    "nodes" : [
        {
            "name" : "Light",
            "rotation" : [
                0.16907575726509094,
                0.7558803558349609,
                -0.27217137813568115,
                0.570947527885437
            ],
            "translation" : [
                -0.7744200229644775,
                11.201597213745117,
                -5.888149261474609
            ]
        },
        {
            "name" : "Camera",
            "rotation" : [
                0.483536034822464,
                0.33687159419059753,
                -0.20870360732078552,
                0.7804827094078064
            ],
            "translation" : [
                7.358891487121582,
                4.958309173583984,
                6.925790786743164
            ]
        },
        {
            "name" : "Light.001",
            "rotation" : [
                0.16907575726509094,
                0.7558803558349609,
                -0.27217137813568115,
                0.570947527885437
            ],
            "translation" : [
                3.67856502532959,
                4.597402095794678,
                2.5268311500549316
            ]
        },
        {
            "mesh" : 0,
            "name" : "path128",
            "rotation" : [
                0.7071067690849304,
                0,
                0,
                0.7071067690849304
            ],
            "scale" : [
                20.754640579223633,
                20.754640579223633,
                20.754640579223633
            ],
            "translation" : [
                -9.330947875976562,
                2.335275888442993,
                0.4442063570022583
            ]
        }
    ],
    "materials" : [
        {
            "doubleSided" : true,
            "emissiveFactor" : [
                0,
                0,
                0
            ],
            "name" : "SVGMat.007",
            "pbrMetallicRoughness" : {
                "baseColorFactor" : [
                    0.06553967297077179,
                    0.8055099248886108,
                    0.2580135762691498,
                    1
                ],
                "metallicFactor" : 0.6764705777168274,
                "roughnessFactor" : 0.5
            }
        }
    ],
    "meshes" : [
        {
            "name" : "path128",
            "primitives" : [
                {
                    "attributes" : {
                        "POSITION" : 0,
                        "NORMAL" : 1,
                        "TEXCOORD_0" : 2
                    },
                    "indices" : 3,
                    "material" : 0
                }
            ]
        }
    ],
    "accessors" : [
        {
            "bufferView" : 0,
            "componentType" : 5126,
            "count" : 18771,
            "max" : [
                0.1182759627699852,
                0.1756652146577835,
                -0.003022119402885437
            ],
            "min" : [
                -0.06973916292190552,
                0.15564538538455963,
                -0.07896409928798676
            ],
            "type" : "VEC3"
        },
        {
            "bufferView" : 1,
            "componentType" : 5126,
            "count" : 18771,
            "type" : "VEC3"
        },
        {
            "bufferView" : 2,
            "componentType" : 5126,
            "count" : 18771,
            "type" : "VEC2"
        },
        {
            "bufferView" : 3,
            "componentType" : 5123,
            "count" : 33900,
            "type" : "SCALAR"
        }
    ],
    "bufferViews" : [
        {
            "buffer" : 0,
            "byteLength" : 225252,
            "byteOffset" : 0
        },
        {
            "buffer" : 0,
            "byteLength" : 225252,
            "byteOffset" : 225252
        },
        {
            "buffer" : 0,
            "byteLength" : 150168,
            "byteOffset" : 450504
        },
        {
            "buffer" : 0,
            "byteLength" : 67800,
            "byteOffset" : 600672
        }
    ],
    "buffers" : [
        {
            "byteLength" : 668472,
            "uri" : "data:application/octet-stream;base64,"
        }
    ]
}
