{
    "asset" : {
        "generator" : "Khronos glTF Blender I/O v1.1.45",
        "version" : "2.0"
    },
    "scene" : 0,
    "scenes" : [
        {
            "name" : "Scene",
            "nodes" : [
                0,
                1,
                2,
                3,
                4
            ]
        }
    ],
    "nodes" : [
        {
            "name" : "Light",
            "rotation" : [
                0.16907575726509094,
                0.7558803558349609,
                -0.27217137813568115,
                0.570947527885437
            ],
            "translation" : [
                14.96766185760498,
                8.492403984069824,
                15.148916244506836
            ]
        },
        {
            "name" : "Camera",
            "rotation" : [
                0.483536034822464,
                0.33687159419059753,
                -0.20870360732078552,
                0.7804827094078064
            ],
            "translation" : [
                7.358891487121582,
                4.958309173583984,
                6.925790786743164
            ]
        },
        {
            "name" : "Light.001",
            "rotation" : [
                0.16907575726509094,
                0.7558803558349609,
                -0.27217137813568115,
                0.570947527885437
            ],
            "translation" : [
                4.009198188781738,
                -7.243685245513916,
                -1.429176926612854
            ]
        },
        {
            "mesh" : 0,
            "name" : "path58",
            "rotation" : [
                0.7071067690849304,
                0,
                0,
                0.7071067690849304
            ],
            "scale" : [
                1.6306276321411133,
                1.6306276321411133,
                1.6306276321411133
            ],
            "translation" : [
                1.0502045154571533,
                0.24196797609329224,
                0.23990780115127563
            ]
        },
        {
            "mesh" : 1,
            "name" : "path56",
            "rotation" : [
                0.7071067690849304,
                0,
                0,
                0.7071067690849304
            ],
            "scale" : [
                1.6306276321411133,
                1.6306276321411133,
                1.6306276321411133
            ],
            "translation" : [
                1.0502045154571533,
                0.24196797609329224,
                0.23990780115127563
            ]
        }
    ],
    "materials" : [
        {
            "doubleSided" : true,
            "emissiveFactor" : [
                0,
                0,
                0
            ],
            "name" : "SVGMat.012",
            "pbrMetallicRoughness" : {
                "baseColorFactor" : [
                    0.715693473815918,
                    0.027320891618728638,
                    0.20507873594760895,
                    1
                ],
                "metallicFactor" : 0.8529411554336548,
                "roughnessFactor" : 0.5
            }
        },
        {
            "doubleSided" : true,
            "emissiveFactor" : [
                0,
                0,
                0
            ],
            "name" : "SVGMat.013",
            "pbrMetallicRoughness" : {
                "baseColorFactor" : [
                    0.061246052384376526,
                    0.11443537473678589,
                    0.3915724754333496,
                    1
                ],
                "metallicFactor" : 0.8235294222831726,
                "roughnessFactor" : 0.5
            }
        }
    ],
    "meshes" : [
        {
            "name" : "path58.001",
            "primitives" : [
                {
                    "attributes" : {
                        "POSITION" : 0,
                        "NORMAL" : 1,
                        "TEXCOORD_0" : 2
                    },
                    "indices" : 3,
                    "material" : 0
                }
            ]
        },
        {
            "name" : "path56.001",
            "primitives" : [
                {
                    "attributes" : {
                        "POSITION" : 4,
                        "NORMAL" : 5,
                        "TEXCOORD_0" : 6
                    },
                    "indices" : 7,
                    "material" : 1
                }
            ]
        }
    ],
    "accessors" : [
        {
            "bufferView" : 0,
            "componentType" : 5126,
            "count" : 11310,
            "max" : [
                0.1493874490261078,
                0.06523029506206512,
                -0.07035992294549942
            ],
            "min" : [
                0.06363925337791443,
                0,
                -0.1653919667005539
            ],
            "type" : "VEC3"
        },
        {
            "bufferView" : 1,
            "componentType" : 5126,
            "count" : 11310,
            "type" : "VEC3"
        },
        {
            "bufferView" : 2,
            "componentType" : 5126,
            "count" : 11310,
            "type" : "VEC2"
        },
        {
            "bufferView" : 3,
            "componentType" : 5123,
            "count" : 20307,
            "type" : "SCALAR"
        },
        {
            "bufferView" : 4,
            "componentType" : 5126,
            "count" : 19919,
            "max" : [
                0.18841123580932617,
                0.06523029506206512,
                -0.07101976871490479
            ],
            "min" : [
                0.024774789810180664,
                0,
                -0.24111901223659515
            ],
            "type" : "VEC3"
        },
        {
            "bufferView" : 5,
            "componentType" : 5126,
            "count" : 19919,
            "type" : "VEC3"
        },
        {
            "bufferView" : 6,
            "componentType" : 5126,
            "count" : 19919,
            "type" : "VEC2"
        },
        {
            "bufferView" : 7,
            "componentType" : 5123,
            "count" : 35526,
            "type" : "SCALAR"
        }
    ],
    "bufferViews" : [
        {
            "buffer" : 0,
            "byteLength" : 135720,
            "byteOffset" : 0
        },
        {
            "buffer" : 0,
            "byteLength" : 135720,
            "byteOffset" : 135720
        },
        {
            "buffer" : 0,
            "byteLength" : 90480,
            "byteOffset" : 271440
        },
        {
            "buffer" : 0,
            "byteLength" : 40614,
            "byteOffset" : 361920
        },
        {
            "buffer" : 0,
            "byteLength" : 239028,
            "byteOffset" : 402536
        },
        {
            "buffer" : 0,
            "byteLength" : 239028,
            "byteOffset" : 641564
        },
        {
            "buffer" : 0,
            "byteLength" : 159352,
            "byteOffset" : 880592
        },
        {
            "buffer" : 0,
            "byteLength" : 71052,
            "byteOffset" : 1039944
        }
    ],
    "buffers" : [
        {
            "byteLength" : 1110996,
            "uri" : "data:application/octet-stream;base64,"
        }
    ]
}
